<svg width="200" height="144" fill="none" xmlns="http://www.w3.org/2000/svg"><g clip-path="url(#a)"><path d="M0 4a4 4 0 0 1 4-4h192a4 4 0 0 1 4 4v136a4 4 0 0 1-4 4H4a4 4 0 0 1-4-4V4Z" fill="#B3B9C4"/><rect width="200" height="144" rx="4" fill="#F7F8F9"/><g filter="url(#b)"><g clip-path="url(#c)"><rect x="24" y="24" width="200" height="164.336" rx="4" fill="#fff"/><path d="M24 28a4 4 0 0 1 4-4h172v20.336H24V28Z" fill="#F1F2F4"/><ellipse cx="36" cy="34.168" rx="4" ry="4.067" fill="#B3B9C4"/><ellipse cx="48" cy="34.168" rx="4" ry="4.067" fill="#B3B9C4"/><ellipse cx="60" cy="34.168" rx="4" ry="4.067" fill="#B3B9C4"/><g clip-path="url(#d)"><path fill="#fff" d="M24 44.336h200v144H24z"/><rect x="43" y="60.336" width="56" height="8" rx="4" fill="#F1F2F4"/><rect x="43" y="84.336" width="24" height="24" rx="3" fill="#F1F2F4"/><rect x="75" y="84.336" width="48" height="8" rx="4" fill="#F1F2F4"/><rect x="75" y="100.336" width="104" height="8" rx="4" fill="#F1F2F4"/><rect x="43" y="124.336" width="24" height="24" rx="3" fill="#F1F2F4"/><rect x="75" y="124.336" width="48" height="8" rx="4" fill="#F1F2F4"/><rect x="75" y="140.336" width="104" height="8" rx="4" fill="#F1F2F4"/><path fill="#091E42" fill-opacity=".48" d="M24 44.336h200v135H24z"/></g></g></g></g><defs><clipPath id="a"><path d="M0 4a4 4 0 0 1 4-4h192a4 4 0 0 1 4 4v136a4 4 0 0 1-4 4H4a4 4 0 0 1-4-4V4Z" fill="#fff"/></clipPath><clipPath id="c"><rect x="24" y="24" width="200" height="164.336" rx="4" fill="#fff"/></clipPath><clipPath id="d"><path fill="#fff" transform="translate(24 44.336)" d="M0 0h200v144H0z"/></clipPath><filter id="b" x="12" y="20" width="224" height="188.336" filterUnits="userSpaceOnUse" color-interpolation-filters="sRGB"><feFlood flood-opacity="0" result="BackgroundImageFix"/><feColorMatrix in="SourceAlpha" values="0 0 0 0 0 0 0 0 0 0 0 0 0 0 0 0 0 0 127 0" result="hardAlpha"/><feOffset dy="8"/><feGaussianBlur stdDeviation="6"/><feColorMatrix values="0 0 0 0 0.0352941 0 0 0 0 0.117647 0 0 0 0 0.258824 0 0 0 0.15 0"/><feBlend in2="BackgroundImageFix" result="effect1_dropShadow_2117_4006"/><feColorMatrix in="SourceAlpha" values="0 0 0 0 0 0 0 0 0 0 0 0 0 0 0 0 0 0 127 0" result="hardAlpha"/><feOffset/><feGaussianBlur stdDeviation=".5"/><feColorMatrix values="0 0 0 0 0.0352941 0 0 0 0 0.117647 0 0 0 0 0.258824 0 0 0 0.31 0"/><feBlend in2="effect1_dropShadow_2117_4006" result="effect2_dropShadow_2117_4006"/><feBlend in="SourceGraphic" in2="effect2_dropShadow_2117_4006" result="shape"/></filter></defs></svg>