<svg width="200" height="144" fill="none" xmlns="http://www.w3.org/2000/svg"><g clip-path="url(#a)"><rect width="200" height="144" rx="4" fill="#DCDFE4"/><g filter="url(#b)"><path fill="#fff" d="M0 0h160v151H0z"/><path fill-rule="evenodd" clip-rule="evenodd" d="M27.698 13.31a.881.881 0 0 1 0 1.296l-3.635 3.477h9.187a.98.98 0 0 1 .678.269c.18.172.28.405.28.648a.897.897 0 0 1-.28.648.98.98 0 0 1-.678.269h-9.187l3.635 3.477a.882.882 0 0 1 0 1.296.991.991 0 0 1-1.356 0l-5.27-5.042a.896.896 0 0 1-.28-.622v-.053a.895.895 0 0 1 .28-.621l5.27-5.042a.995.995 0 0 1 1.356 0Z" fill="#44546F"/><rect x="47" y="15" width="97" height="8" rx="4" fill="#B3B9C4"/><rect x="16" y="46" width="128" height="8" rx="4" fill="#DCDFE4"/><rect x="16" y="70" width="128" height="8" rx="4" fill="#DCDFE4"/><rect x="16" y="94" width="128" height="8" rx="4" fill="#DCDFE4"/></g></g><defs><clipPath id="a"><path d="M0 4a4 4 0 0 1 4-4h192a4 4 0 0 1 4 4v136a4 4 0 0 1-4 4H4a4 4 0 0 1-4-4V4Z" fill="#fff"/></clipPath><filter id="b" x="-12" y="-4" width="184" height="175" filterUnits="userSpaceOnUse" color-interpolation-filters="sRGB"><feFlood flood-opacity="0" result="BackgroundImageFix"/><feColorMatrix in="SourceAlpha" values="0 0 0 0 0 0 0 0 0 0 0 0 0 0 0 0 0 0 127 0" result="hardAlpha"/><feOffset dy="8"/><feGaussianBlur stdDeviation="6"/><feColorMatrix values="0 0 0 0 0.0352941 0 0 0 0 0.117647 0 0 0 0 0.258824 0 0 0 0.15 0"/><feBlend in2="BackgroundImageFix" result="effect1_dropShadow_2069_3276"/><feColorMatrix in="SourceAlpha" values="0 0 0 0 0 0 0 0 0 0 0 0 0 0 0 0 0 0 127 0" result="hardAlpha"/><feOffset/><feGaussianBlur stdDeviation=".5"/><feColorMatrix values="0 0 0 0 0.0352941 0 0 0 0 0.117647 0 0 0 0 0.258824 0 0 0 0.31 0"/><feBlend in2="effect1_dropShadow_2069_3276" result="effect2_dropShadow_2069_3276"/><feBlend in="SourceGraphic" in2="effect2_dropShadow_2069_3276" result="shape"/></filter></defs></svg>