<svg fill="none" height="144" viewBox="0 0 200 144" width="200" xmlns="http://www.w3.org/2000/svg" xmlns:xlink="http://www.w3.org/1999/xlink"><clipPath id="a"><path d="m0 0h200v144h-200z"/></clipPath><g clip-path="url(#a)"><rect fill="#f4f5f7" height="144" rx="4" width="200"/><rect fill="#c1c7d0" height="8" rx="4" width="45" x="24" y="32"/><rect fill="#c1c7d0" height="8" rx="4" width="45" x="140" y="32"/><path d="m25 51h180.928" stroke="#c1c7d0" stroke-linecap="round" stroke-width="2"/><path d="m0 0h24v24h-24z" fill="#fff" fill-opacity=".01" transform="translate(24 56)"/><path clip-rule="evenodd" d="m46 68c0 5.5228-4.4772 10-10 10s-10-4.4772-10-10 4.4772-10 10-10 10 4.4772 10 10zm-7-3c0 1.6569-1.3431 3-3 3s-3-1.3431-3-3 1.3431-3 3-3 3 1.3431 3 3zm-3 11c-1.8181.0027-3.5824-.6166-5-1.755v-3.245c0-1.105.887-2 2-2h6c1.105 0 2 .885 2 2v3.245c-1.37 1.098-3.108 1.755-5 1.755z" fill="#c1c7d0" fill-rule="evenodd"/><rect fill="#dfe1e6" height="8" rx="4" width="44.9555" x="52" y="64"/><path d="m0 0h24v24h-24z" fill="#fff" fill-opacity=".01" transform="translate(24 80)"/><path clip-rule="evenodd" d="m46 92c0 5.5228-4.4772 10-10 10s-10-4.4772-10-10 4.4772-10 10-10 10 4.4772 10 10zm-7-3c0 1.6569-1.3431 3-3 3s-3-1.3431-3-3 1.3431-3 3-3 3 1.3431 3 3zm-3 11c-1.8181.003-3.5824-.6166-5-1.755v-3.245c0-1.105.887-2 2-2h6c1.105 0 2 .885 2 2v3.245c-1.37 1.098-3.108 1.755-5 1.755z" fill="#c1c7d0" fill-rule="evenodd"/><rect fill="#dfe1e6" height="8" rx="4" width="52.6984" x="52" y="88"/><path d="m0 0h24v24h-24z" fill="#fff" fill-opacity=".01" transform="translate(24 104)"/><path clip-rule="evenodd" d="m46 116c0 5.523-4.4772 10-10 10s-10-4.477-10-10 4.4772-10 10-10 10 4.477 10 10zm-7-3c0 1.657-1.3431 3-3 3s-3-1.343-3-3 1.3431-3 3-3 3 1.343 3 3zm-3 11c-1.8181.003-3.5824-.617-5-1.755v-3.245c0-1.105.887-2 2-2h6c1.105 0 2 .885 2 2v3.245c-1.37 1.098-3.108 1.755-5 1.755z" fill="#c1c7d0" fill-rule="evenodd"/><g fill="#dfe1e6"><rect height="8" rx="4" width="72" x="52" y="112"/><rect height="8" rx="4" width="44.9555" x="140" y="64"/><rect height="8" rx="4" width="73" x="140" y="88"/><rect height="8" rx="4" width="59" x="140" y="112"/></g></g></svg>