<svg width="200" height="144" fill="none" xmlns="http://www.w3.org/2000/svg"><rect width="200" height="144" rx="4" fill="#F7F8F9"/><path fill-rule="evenodd" clip-rule="evenodd" d="M63.583 72c0 5.063-4.29 9.167-9.583 9.167S44.417 77.063 44.417 72s4.29-9.167 9.583-9.167 9.583 4.104 9.583 9.167Zm-10.497-.874v-2.831a.841.841 0 0 1 .267-.618.95.95 0 0 1 1.293 0 .843.843 0 0 1 .268.618v2.83h2.96a.952.952 0 0 1 .646.257.842.842 0 0 1 0 1.237.952.952 0 0 1-.646.256h-2.96v2.83a.842.842 0 0 1-.267.619.92.92 0 0 1-.647.256.951.951 0 0 1-.647-.256.873.873 0 0 1-.198-.284.84.84 0 0 1-.07-.335v-2.83h-2.959a.951.951 0 0 1-.646-.257.84.84 0 0 1 0-1.237.918.918 0 0 1 .646-.255h2.96Z" fill="#44546F"/><path d="M83.296 76.851a.9.9 0 0 0-1.28 0 .917.917 0 0 0 0 1.29l1.8 1.815a.994.994 0 0 0 1.41 0l1.76-1.772a.917.917 0 0 0-.294-1.489.902.902 0 0 0-.988.198l-1.183 1.192-1.225-1.234Z" fill="#44546F"/><path d="m85.418 79.327-.001-9.155a.92.92 0 0 0-.917-.922.92.92 0 0 0-.917.923l.001 9.155c0 .509.41.922.917.922a.92.92 0 0 0 .917-.923Z" fill="#44546F"/><path fill-rule="evenodd" clip-rule="evenodd" d="M80.776 66.023a4.402 4.402 0 0 0-.712-.056c-2.571 0-4.73 2.018-4.73 4.656 0 2.669 2.186 5.044 4.674 5.044h2.641V73.84h-2.64c-1.52 0-2.856-1.525-2.856-3.216 0-1.63 1.346-2.83 2.845-2.83h.011c.357 0 .63.046.89.138l.155.058c.555.227.802-.226.802-.226l.138-.245c.669-1.234 2.017-1.921 3.406-1.943a3.795 3.795 0 0 1 3.73 3.341l.042.312s.065.481.61.481c.012 0 .01.005.02.005h.234c1.041 0 1.811.879 1.811 1.978 0 1.106-.905 2.147-1.897 2.147h-3.634v1.827h3.634c1.98 0 3.717-1.875 3.717-3.974 0-1.833-1.203-3.358-2.877-3.735-.648-2.481-2.798-4.172-5.395-4.208-1.81.018-3.576.825-4.618 2.273ZM107.352 78.627a.904.904 0 0 0 .262.832.997.997 0 0 0 .869.25l3.652-.715-4.035-3.859-.748 3.492Zm15.165-11.479-2.032-1.945a1.918 1.918 0 0 0-.622-.398 1.995 1.995 0 0 0-2.091.398l-9.35 8.945 4.744 4.537 9.35-8.945c.36-.343.561-.81.561-1.296s-.201-.952-.561-1.296h.001Z" fill="#44546F"/><path d="M153.667 78.417V68.333h-8.773l-.482-1.153-.436-1.041c-.105-.253-.572-.556-.848-.556h-4.798c.005 0 .003 12.834.003 12.834h15.334ZM146.192 66.5h7.483c1.054 0 1.908.819 1.908 1.826v10.098c0 1.008-.86 1.826-1.908 1.826h-15.35c-1.054 0-1.908-.819-1.908-1.826V65.589c0-1.016.858-1.839 1.913-1.839h4.798c1.057 0 2.23.757 2.628 1.707l.436 1.043Z" fill="#44546F"/></svg>