<svg version="1.2" xmlns="http://www.w3.org/2000/svg" viewBox="0 0 200 144" width="200" height="144"><style>.s0{fill:#f4f5f7}.s1{fill:#505f79}.s2{fill:#dfe1e6}</style><path class="s0" d="m0 4c0-2.2 1.8-4 4-4h192c2.2 0 4 1.8 4 4v136c0 2.2-1.8 4-4 4h-192c-2.2 0-4-1.8-4-4z" /><path class="s1" d="m109.1 59.7c0-3.9 3.2-7.1 7.2-7.1c3.9 0 7.1 3.2 7.1 7.1c0 4-3.2 7.2-7.1 7.2c-4 0-7.2-3.2-7.2-7.2z" /><path fill-rule="evenodd" class="s2" d="m133 47.2v49c0 2.3-1.9 4.2-4.2 4.2h-58.7c-2.2 0-4.1-1.9-4.1-4.2v-49c0-2.3 1.9-4.2 4.2-4.2h58.7c2.2 0 4.1 1.9 4.1 4.2zm-4.8 41.3v-38.9c0-1-0.9-1.8-2-1.8h-53.4c-1.1 0-1.9 0.8-2 1.7v39l18.9-22.8c0.5-0.7 1.5-1.2 2.5-1.2c1 0 1.9 0.5 2.5 1.2l8.1 8.6c0.2 0.3 0.5 0.5 0.6 0.6c0.4 0.5 1 0.6 1.7 0.6c0.7 0 1.1-0.2 1.6-0.7l2.9-2.3c0.6-0.5 1.1-0.8 1.9-0.8c0.8 0 1.5 0.3 1.9 0.8z" /></svg>